<svg viewBox="0 0 33.42 18.11" xmlns="http://www.w3.org/2000/svg" xmlns:xlink="http://www.w3.org/1999/xlink"><style>:root&gt;svg{display:none}:root&gt;svg:target{display:block}</style><svg viewBox="0 0 33.42 18.11" id="css--test-logo-1" xmlns="http://www.w3.org/2000/svg"><path d="M.28 15.23v1.24H0V12.9h1.57a1.17 1.17 0 010 2.33zm0-2.08v1.83h1.29a.92.92 0 000-1.83zm3.25-.25v1.52a1 1 0 01.91-.51 1 1 0 011.06 1.11v1.45h-.25v-1.45c0-.52-.24-.87-.81-.87a.89.89 0 00-.9.93v1.39h-.25V12.9zm2.5 2.31a1.28 1.28 0 112.56 0 1.28 1.28 0 11-2.56 0zm2.32 0a1.035 1.035 0 10-2.07 0 1.035 1.035 0 102.07 0zm1.34-2.02v.76h.86v.21h-.86v1.53c0 .34.08.58.47.58a.9.9 0 00.38-.1l.09.2a1 1 0 01-.47.13c-.54 0-.71-.32-.71-.81v-1.53h-.54v-.21h.54v-.74zm1.32 2.02a1.28 1.28 0 112.56 0 1.28 1.28 0 11-2.56 0zm2.31 0a1 1 0 10-1 1.05 1 1 0 001-1.05zm2.85-1.36l.16.14-.24.28a1.24 1.24 0 01-.37 1.93.93.93 0 01.69.9c0 .68-.53 1-1.2 1a1.05 1.05 0 01-1.19-1h.25c0 .52.44.76.94.76s1-.22 1-.76-.48-.75-1-.75a1.23 1.23 0 010-2.45 1.23 1.23 0 01.71.23zm-1.89 1.28a.92.92 0 00.93 1 1 1 0 00.94-1 .9.9 0 00-.94-1 .89.89 0 00-.93 1zm2.87-1.18v.45a.88.88 0 01.84-.48 1.08 1.08 0 01.54.15l-.12.2a.8.8 0 00-.42-.11.83.83 0 00-.83.84v1.47h-.25v-2.52zm4.18 0v2.52h-.25v-.54a1.17 1.17 0 01-1 .58 1.3 1.3 0 010-2.59 1.13 1.13 0 011 .58v-.55zm-2.3 1.26a1 1 0 001 1.05 1.05 1.05 0 000-2.1 1 1 0 00-1 1.05zm2.98 2.31v-3.57h.25v.59a1.2 1.2 0 011.09-.63 1.3 1.3 0 01-.06 2.6 1.15 1.15 0 01-1-.63v1.64zm2.31-2.31a1 1 0 00-1-1.06 1.06 1.06 0 000 2.12 1 1 0 001-1.06zm1.11-2.31v1.52a1.06 1.06 0 012 .6v1.45h-.25v-1.45c0-.52-.24-.87-.81-.87a.88.88 0 00-.89.93v1.39h-.25V12.9zm2.47 2.31a1.26 1.26 0 011.28-1.3 1.17 1.17 0 011.24 1.41h-2.27a1 1 0 001 .94 1.2 1.2 0 00.91-.39l.17.15a1.37 1.37 0 01-1.08.48 1.23 1.23 0 01-1.25-1.29zm2.3-.11a.92.92 0 00-1-1 1 1 0 00-1 1zm1.11-1.15v.45a.86.86 0 01.83-.48 1 1 0 01.54.15l-.11.2a.81.81 0 00-.43-.11.83.83 0 00-.83.84v1.47h-.25v-2.52zM.2 11.24V0h.59v10.74h6.89v.5zm11.59 0L8.27 3.01h.52L12 10.63l3.24-7.62h.55l-3.52 8.23zm9 .16a3.56 3.56 0 01-1.56-.34 4.13 4.13 0 01-2.1-2.27 4.49 4.49 0 01-.3-1.63 4.36 4.36 0 01.31-1.65 4.23 4.23 0 01.85-1.36 4 4 0 011.26-.93 3.5 3.5 0 011.54-.34 3.55 3.55 0 011.55.34 4 4 0 011.27.93 4.41 4.41 0 01.85 1.36 4.56 4.56 0 01.3 1.65 4.49 4.49 0 01-.3 1.63 4.4 4.4 0 01-.84 1.35 4.09 4.09 0 01-1.26.92 3.63 3.63 0 01-1.57.34zm-3.42-4.23a3.84 3.84 0 00.27 1.44 3.77 3.77 0 00.73 1.19 3.17 3.17 0 001.08.8 3.15 3.15 0 002.66 0 3.62 3.62 0 001.09-.8 3.67 3.67 0 00.74-1.2 4 4 0 000-2.9 3.52 3.52 0 00-.74-1.19 3.49 3.49 0 00-1.09-.81 3 3 0 00-1.32-.3 2.93 2.93 0 00-1.31.3 3.49 3.49 0 00-1.09.81 4 4 0 00-.74 1.21 3.79 3.79 0 00-.25 1.45zm12 4.07l-3.51-8.23h.57l3.21 7.62 3.23-7.62h.56l-3.52 8.23z"/></svg></svg>